<svg width="233" height="76" viewBox="0 0 233 76" fill="none" xmlns="http://www.w3.org/2000/svg">
<g clip-path="url(#clip0_328_420)">
<path d="M0 0L37.5287 37.84L74.9793 0V75.6932H62.6301V30.4691L37.5417 55.7352L0 17.593V0Z" fill="#FFF6FF"/>
<path d="M232.829 25.2661C232.829 32.1772 230.489 38.2211 225.523 43.1481C220.662 48.0621 214.76 50.5322 207.922 50.5322H182.925V75.6932H170.472V37.84H207.909C211.276 37.84 214.175 36.605 216.619 34.148C219.063 31.691 220.363 28.7611 220.363 25.253C220.363 21.7449 219.141 18.8149 216.619 16.3579C214.188 13.901 211.289 12.6659 207.909 12.6659H182.912L170.485 0H207.922C214.76 0 220.649 2.45697 225.523 7.38406C230.385 12.4031 232.829 18.355 232.829 25.2661Z" fill="#FFF6FF"/>
<path d="M138.051 12.679L144.408 0H158.265L120.827 75.6932L95.8299 25.1741H109.869L120.814 47.4052L131.864 25.1741L138.038 12.6922L138.051 12.679ZM83.3896 0H97.3378L103.512 12.5871H89.6553L83.3896 0Z" fill="#FFF6FF"/>
</g>
<defs>
<clipPath id="clip0_328_420">
<rect width="232.828" height="75.6932" fill="white"/>
</clipPath>
</defs>
</svg>
